<svg xmlns="http://www.w3.org/2000/svg" width="229" height="151" fill="none" viewBox="0 0 229 151"><path fill="#000" fill-opacity=".05" d="M117.017 151C158.649 151 192.398 146.93 192.398 141.91C192.398 136.89 158.649 132.82 117.017 132.82C75.3849 132.82 41.6356 136.89 41.6356 141.91C41.6356 146.93 75.3849 151 117.017 151Z"/><path fill="#3062BB" fill-rule="evenodd" stroke="#152633" stroke-width="2" d="M34.9843 73.8452C55.0859 87.1223 81.2476 93.3302 113.469 92.4688C140.57 91.7442 179.982 83.6004 199.493 73.8452L162.56 65.3791C117.036 71.9999 84.8569 71.2745 66.0236 63.2031L34.9843 73.8452Z" clip-rule="evenodd"/><path fill="#2D3B45" fill-rule="evenodd" stroke="#152633" stroke-width="2" d="M121.007 82.2701C125.442 69.5588 132.241 64.0899 141.405 65.8636C155.151 68.5241 168.897 94.6858 141.405 96.9029C136.084 97.4941 132.832 92.3209 131.65 81.3833L121.007 82.2701Z" clip-rule="evenodd"/><path stroke="#152633" stroke-linecap="round" stroke-width="2" d="M36.3146 74.2885L56.7118 67.1938"/><path stroke="#152633" stroke-linecap="round" stroke-width="2" d="M198.606 74.1785L220.546 64.704"/><path stroke="#152633" stroke-linecap="round" stroke-width="2" d="M162.245 65.4869L227.509 47.6414"/><path stroke="#152633" stroke-linecap="round" stroke-width="2" d="M66.0236 63.2031L25.762 52.7726"/><path stroke="#152633" stroke-linecap="round" stroke-width="2" d="M35.4277 73.8452L1 58.7053"/><path fill="#2D3B45" fill-rule="evenodd" stroke="#152633" stroke-width="2" d="M128.067 76.5206C128.665 73.3556 128.978 71.1098 129.003 69.7829C129.107 64.4679 127.258 60.9755 123.459 59.3055C115.625 55.8625 105.488 62.2567 105.488 71.3561C105.488 77.4223 111.171 82.095 122.537 85.374L128.067 76.5206Z" clip-rule="evenodd"/><path fill="#fff" fill-rule="evenodd" d="M128.989 68.0807C141.405 74.732 141.789 83.8646 140.633 86.8926C139.017 91.1251 107.273 113.188 86.2594 104.441C65.2457 95.694 71.7114 73.5379 86.2594 73.5379C98.8347 73.5379 99.1363 65.8067 111.515 64.8036" clip-rule="evenodd"/><path stroke="#152633" stroke-width="2" d="M128.989 68.0807C141.405 74.732 141.789 83.8646 140.633 86.8926C139.017 91.1251 107.273 113.188 86.2594 104.441C65.2457 95.694 71.7114 73.5379 86.2594 73.5379C98.8347 73.5379 99.1363 65.8067 111.515 64.8036"/><path fill="#5DB9F2" fill-rule="evenodd" stroke="#152633" stroke-width="2" d="M34.9843 73.7612C55.0859 86.81 81.2476 92.9111 113.469 92.0645C145.691 91.2179 174.366 85.1168 199.493 73.7612C158.255 91.9414 148.056 118.187 111.696 119.961C75.3354 121.734 48.2869 82.4771 34.9843 73.7612Z" clip-rule="evenodd"/><path stroke="#152633" stroke-linecap="round" stroke-width="2" d="M51.8342 82.7135L61.146 92.0253"/><path stroke="#152633" stroke-linecap="round" stroke-width="2" d="M59.3723 85.374L62.0328 88.0345"/><path fill="#2D3B45" fill-rule="evenodd" stroke="#152633" stroke-width="2" d="M87.3549 77.5684C87.3549 77.5684 83.6433 76.2175 85.9431 81.7733C103.935 122.769 69.5741 122.531 68.4053 103.703C67.2364 84.874 74.8913 76.807 87.3549 77.5684Z" clip-rule="evenodd"/><path fill="#2D3B45" fill-rule="evenodd" stroke="#152633" stroke-linecap="round" stroke-width="2" d="M29.235 36.8443C28.5807 34.911 25.8567 25.3884 34.6463 25.399C39.397 25.4047 44.9419 26.5665 49.0415 27.6337C45.3108 33.6123 44.1209 40.513 44.7945 47.6379C43.479 47.739 42.0295 47.7103 40.4554 47.4707C32.8526 46.313 29.8894 38.778 29.235 36.8443Z" clip-rule="evenodd"/><path fill="#fff" fill-rule="evenodd" stroke="#152633" stroke-width="2" d="M114.451 32.2864C124.217 49.2024 115.649 67.1052 97.9588 76.2396C80.2689 85.374 63.8065 80.9399 52.2776 67.1939C40.7487 53.4479 36.0709 28.9299 57.0913 16.7937C78.1117 4.6576 104.179 14.4955 114.451 32.2864Z" clip-rule="evenodd"/><path fill="#152633" fill-rule="evenodd" d="M97.2072 55.5964C96.3237 54.0661 97.2787 51.8608 100.42 50.0473C103.561 48.2338 106.363 47.8809 107.247 49.4112C108.13 50.9415 107.097 54.3585 103.956 56.172C100.815 57.9856 98.0907 57.1267 97.2072 55.5964Z" clip-rule="evenodd"/><path fill="#2D3B45" fill-rule="evenodd" stroke="#152633" stroke-width="2" d="M86.2737 39.387C91.9306 49.1851 89.4806 58.2457 82.4301 62.3163C75.4076 66.3707 63.4489 65.5678 57.9722 55.7269C47.8779 37.5895 57.9792 27.5731 61.3488 25.6277C68.5212 21.4867 80.7892 29.8877 86.2737 39.387Z" clip-rule="evenodd"/><path fill="#2D3B45" fill-rule="evenodd" stroke="#152633" stroke-width="2" d="M117.514 39.9236C116.72 41.0127 116.074 42.0535 115.163 42.5792C115.118 42.6054 115.072 42.6313 115.025 42.6561C112.703 43.915 109.135 43.942 104.646 41.7128C100.338 39.5728 96.6469 36.2051 94.2829 33.0501C89.1935 26.2584 85.039 18.5479 86.2437 13.4122C86.3216 13.081 86.43 12.7684 86.5549 12.4661C98.3261 15.0908 108.788 22.4793 114.451 32.2865C115.968 34.9146 116.778 37.3568 117.514 39.9236Z" clip-rule="evenodd"/><path fill-rule="evenodd" stroke="#152633" stroke-linecap="round" stroke-width="2" d="M77.9018 49.9659C77.1091 47.0076 79.9872 44.1361 83.3169 45.9097L77.9018 49.9659Z" clip-rule="evenodd"/><path fill-rule="evenodd" stroke="#152633" stroke-linecap="round" stroke-width="2" d="M103.466 35.5478C101.769 33.3768 101.274 30.9293 102.36 30.0813C103.445 29.2332 105.7 30.3056 107.397 32.4766L103.466 35.5478Z" clip-rule="evenodd"/><path fill="#2D3B45" fill-rule="evenodd" d="M103.782 72.5885C103.779 72.5816 103.777 72.5741 103.775 72.567C104.491 72.0146 105.181 71.4541 105.844 70.8859C105.181 71.4664 104.493 72.0337 103.782 72.5885Z" clip-rule="evenodd"/><path fill="#2D3B45" fill-rule="evenodd" stroke="#152633" stroke-width="2" d="M124.555 91.1385C128.989 78.4272 135.788 72.9584 144.952 74.732C158.698 77.3925 176.878 117.744 144.952 109.319C137.562 107.545 134.31 101.189 135.197 90.2517L124.555 91.1385Z" clip-rule="evenodd"/><path fill="#2D3B45" fill-rule="evenodd" d="M128.646 67.8453C128.989 73.8451 125.442 81.3832 114.8 78.2793C110.785 76.4264 108.491 73.0546 108.517 69.65C108.528 68.1662 112.084 66.1485 113.026 64.5333" clip-rule="evenodd"/><path stroke="#152633" stroke-width="2" d="M128.546 65.4202C129.876 74.732 122.781 81.8267 114.356 78.2793C109.505 76.2948 108.623 72.4825 109.035 68.5241C111.696 65.8636 114.061 62.4641 116.13 58.3255"/><path stroke="#152633" stroke-linecap="round" stroke-width="2" d="M198.606 74.2885L161.802 65.8636"/><path fill="#FFC100" fill-rule="evenodd" stroke="#152633" stroke-linecap="round" stroke-linejoin="round" stroke-width="2" d="M79.1436 46.1398C48.6328 36.2262 25.7393 22.5254 28.0095 15.5382C30.2798 8.551 56.8542 10.9233 87.3651 20.8369C117.876 30.7504 140.769 44.4513 138.499 51.4385C136.229 58.4257 109.655 56.0534 79.1436 46.1398Z" clip-rule="evenodd"/><path fill="#01B9A3" fill-rule="evenodd" stroke="#152633" stroke-linecap="round" stroke-linejoin="round" stroke-width="2" d="M80.6929 40.146C58.3183 32.8761 41.5157 22.8721 43.1633 17.8014C44.8108 12.7308 64.2846 14.5137 86.6592 21.7837C109.034 29.0536 125.836 39.0576 124.189 44.1283C122.541 49.1989 103.068 47.416 80.6929 40.146Z" clip-rule="evenodd"/><path fill="#FFC100" fill-rule="evenodd" stroke="#152633" stroke-linecap="round" stroke-linejoin="round" stroke-width="2" d="M81.5132 37.1422C62.0079 30.8045 47.3722 22.0456 48.8236 17.5788C50.275 13.1119 66.4952 -5.30774 92.977 3.22941C119.459 11.7666 120.91 36.0627 119.459 40.5295C118.007 44.9964 101.019 43.4798 81.5132 37.1422Z" clip-rule="evenodd"/><path stroke="#152633" stroke-linecap="round" stroke-width="2" d="M100.61 66.3071C97.0629 68.6719 92.9243 68.6719 88.1945 66.3071C85.534 64.9768 86.4209 71.1847 91.2985 67.6373"/><path stroke="#FFC100" stroke-linecap="round" stroke-width="2" d="M89.5248 67.1938C82.1345 70.4456 76.2222 77.6881 71.788 88.9214"/><path stroke="#152633" stroke-linecap="round" stroke-width="2" d="M81.0998 1.12451C73.1183 3.1938 67.206 9.10605 63.3631 18.8613"/><path stroke="#152633" stroke-linecap="round" stroke-width="2" d="M60.2592 11.3231C62.4762 13.5402 66.9104 16.6441 71.3446 17.9744"/><path stroke="#152633" stroke-linecap="round" stroke-width="2" d="M61.3918 16.4213C62.97 17.5681 64.8546 18.7131 66.8349 19.6035"/><path stroke="#152633" stroke-linecap="round" stroke-width="2" d="M105.488 9.54944C107.8 15.3139 107.8 19.7481 107.262 22.4086"/><path stroke="#152633" stroke-linecap="round" stroke-width="2" d="M110.365 20.1915C108.148 20.1915 103.271 18.4178 103.271 18.4178"/><path stroke="#152633" stroke-linecap="round" stroke-width="2" d="M93.5156 27.2862C93.8378 32.4426 92.5205 37.5991 91.7766 40.0317"/><path stroke="#152633" stroke-linecap="round" stroke-width="2" d="M89.0814 33.494C90.855 34.1591 93.5155 34.8243 96.6195 34.8243"/><path stroke="#152633" stroke-linecap="round" stroke-width="2" d="M86.8643 28.173C92.1853 30.5379 96.7673 31.4248 100.61 30.8335"/><path stroke="#152633" stroke-linecap="round" stroke-width="2" d="M87.7511 66.307C88.6379 66.8982 89.8204 67.3417 91.2985 67.6373"/><path fill-rule="evenodd" stroke="#FFC100" stroke-width="2" d="M78.1263 84.8551C77.0984 84.4454 76.4788 83.8463 76.2675 83.0578C76.0563 82.2693 76.2933 81.4407 76.9787 80.572C78.0065 80.9816 78.6261 81.5807 78.8374 82.3692C79.0487 83.1577 78.8117 83.9863 78.1263 84.8551Z" clip-rule="evenodd"/><path fill-rule="evenodd" stroke="#FFC100" stroke-width="2" d="M75.2598 80.366C74.8502 81.3939 74.2511 82.0135 73.4626 82.2248C72.6741 82.4361 71.8455 82.199 70.9767 81.5137C71.3864 80.4858 71.9855 79.8662 72.774 79.6549C73.5625 79.4437 74.3911 79.6807 75.2598 80.366Z" clip-rule="evenodd"/><path fill-rule="evenodd" stroke="#FFC100" stroke-width="2" d="M73.4862 83.9133C73.0765 84.9412 72.4774 85.5608 71.6889 85.7721C70.9004 85.9834 70.0718 85.7463 69.2031 85.061C69.6127 84.0331 70.2118 83.4135 71.0003 83.2022C71.7888 82.991 72.6174 83.228 73.4862 83.9133Z" clip-rule="evenodd"/><path fill-rule="evenodd" stroke="#FFC100" stroke-width="2" d="M71.7125 87.4607C71.3028 88.4886 70.7037 89.1082 69.9152 89.3195C69.1267 89.5307 68.2981 89.2937 67.4294 88.6084C67.8391 87.5805 68.4382 86.9609 69.2267 86.7496C70.0151 86.5383 70.8438 86.7754 71.7125 87.4607Z" clip-rule="evenodd"/><path fill-rule="evenodd" stroke="#FFC100" stroke-width="2" d="M76.3526 88.4024C75.3247 87.9928 74.7052 87.3937 74.4939 86.6052C74.2826 85.8167 74.5196 84.9881 75.205 84.1193C76.2329 84.529 76.8525 85.1281 77.0637 85.9166C77.275 86.7051 77.038 87.5337 76.3526 88.4024Z" clip-rule="evenodd"/><path fill-rule="evenodd" stroke="#FFC100" stroke-width="2" d="M74.579 91.9498C73.5511 91.5401 72.9315 90.941 72.7202 90.1525C72.5089 89.364 72.746 88.5354 73.4313 87.6667C74.4592 88.0764 75.0788 88.6754 75.2901 89.4639C75.5013 90.2524 75.2643 91.0811 74.579 91.9498Z" clip-rule="evenodd"/><path stroke="#152633" stroke-linecap="round" stroke-width="2" d="M127.215 107.102C126.624 110.945 125.885 113.309 124.998 114.196"/><path stroke="#152633" stroke-linecap="round" stroke-width="2" d="M129.876 108.432C129.58 111.092 129.137 112.718 128.546 113.309"/></svg>